<mxfile host="app.diagrams.net" modified="2024-04-24T20:27:10.955Z" agent="Mozilla/5.0 (Windows NT 10.0; Win64; x64) AppleWebKit/537.36 (KHTML, like Gecko) Chrome/124.0.0.0 Safari/537.36" etag="u04zXi8ORoSe0Upg1GdP" version="24.3.0" type="device">
  <diagram name="Page-1" id="MuE7PLi-8xMIiwO5Gi9H">
    <mxGraphModel dx="792" dy="1097" grid="1" gridSize="10" guides="1" tooltips="1" connect="1" arrows="1" fold="1" page="1" pageScale="1" pageWidth="827" pageHeight="1169" math="0" shadow="0">
      <root>
        <mxCell id="0" />
        <mxCell id="1" parent="0" />
        <mxCell id="YDaZaCtdbL7-nGB_41k7-34" style="edgeStyle=orthogonalEdgeStyle;rounded=0;orthogonalLoop=1;jettySize=auto;html=1;exitX=0.5;exitY=0;exitDx=0;exitDy=0;entryX=0;entryY=0.5;entryDx=0;entryDy=0;" edge="1" parent="1" source="YDaZaCtdbL7-nGB_41k7-3" target="YDaZaCtdbL7-nGB_41k7-21">
          <mxGeometry relative="1" as="geometry" />
        </mxCell>
        <mxCell id="YDaZaCtdbL7-nGB_41k7-3" value="DatabaseController" style="swimlane;fontStyle=1;align=center;verticalAlign=top;childLayout=stackLayout;horizontal=1;startSize=26;horizontalStack=0;resizeParent=1;resizeParentMax=0;resizeLast=0;collapsible=1;marginBottom=0;whiteSpace=wrap;html=1;" vertex="1" parent="1">
          <mxGeometry x="100" y="500" width="210" height="134" as="geometry" />
        </mxCell>
        <mxCell id="YDaZaCtdbL7-nGB_41k7-4" value="+ _database: DatabaseConnection" style="text;strokeColor=none;fillColor=none;align=left;verticalAlign=top;spacingLeft=4;spacingRight=4;overflow=hidden;rotatable=0;points=[[0,0.5],[1,0.5]];portConstraint=eastwest;whiteSpace=wrap;html=1;" vertex="1" parent="YDaZaCtdbL7-nGB_41k7-3">
          <mxGeometry y="26" width="210" height="30" as="geometry" />
        </mxCell>
        <mxCell id="YDaZaCtdbL7-nGB_41k7-5" value="" style="line;strokeWidth=1;fillColor=none;align=left;verticalAlign=middle;spacingTop=-1;spacingLeft=3;spacingRight=3;rotatable=0;labelPosition=right;points=[];portConstraint=eastwest;strokeColor=inherit;" vertex="1" parent="YDaZaCtdbL7-nGB_41k7-3">
          <mxGeometry y="56" width="210" height="8" as="geometry" />
        </mxCell>
        <mxCell id="YDaZaCtdbL7-nGB_41k7-6" value="+ Create(Class): Class&lt;div&gt;+ Read(Class): Class&lt;br&gt;&lt;/div&gt;&lt;div&gt;+ Update(Class): Class&lt;br&gt;&lt;/div&gt;&lt;div&gt;+ Delete(Class): Class&lt;br&gt;&lt;/div&gt;" style="text;strokeColor=none;fillColor=none;align=left;verticalAlign=top;spacingLeft=4;spacingRight=4;overflow=hidden;rotatable=0;points=[[0,0.5],[1,0.5]];portConstraint=eastwest;whiteSpace=wrap;html=1;" vertex="1" parent="YDaZaCtdbL7-nGB_41k7-3">
          <mxGeometry y="64" width="210" height="70" as="geometry" />
        </mxCell>
        <mxCell id="YDaZaCtdbL7-nGB_41k7-33" style="edgeStyle=orthogonalEdgeStyle;rounded=0;orthogonalLoop=1;jettySize=auto;html=1;entryX=1;entryY=0.5;entryDx=0;entryDy=0;" edge="1" parent="1" source="YDaZaCtdbL7-nGB_41k7-8" target="YDaZaCtdbL7-nGB_41k7-21">
          <mxGeometry relative="1" as="geometry" />
        </mxCell>
        <mxCell id="YDaZaCtdbL7-nGB_41k7-8" value="View" style="swimlane;fontStyle=1;align=center;verticalAlign=top;childLayout=stackLayout;horizontal=1;startSize=26;horizontalStack=0;resizeParent=1;resizeParentMax=0;resizeLast=0;collapsible=1;marginBottom=0;whiteSpace=wrap;html=1;" vertex="1" parent="1">
          <mxGeometry x="560" y="500" width="180" height="156" as="geometry" />
        </mxCell>
        <mxCell id="YDaZaCtdbL7-nGB_41k7-11" value="+ Habits(Habits Habit[]) : void&lt;div&gt;+ Habit(Habit Habit): void&lt;br&gt;&lt;div&gt;+ Menu() : void&lt;/div&gt;&lt;div&gt;+ HabitCreation(): void&lt;/div&gt;&lt;div&gt;+ HabitDeletion(): void&lt;/div&gt;&lt;div&gt;+ HabitUpdate(): void&lt;/div&gt;&lt;div&gt;+ Error(string message): void&lt;/div&gt;&lt;div&gt;&lt;br&gt;&lt;/div&gt;&lt;/div&gt;" style="text;strokeColor=none;fillColor=none;align=left;verticalAlign=top;spacingLeft=4;spacingRight=4;overflow=hidden;rotatable=0;points=[[0,0.5],[1,0.5]];portConstraint=eastwest;whiteSpace=wrap;html=1;" vertex="1" parent="YDaZaCtdbL7-nGB_41k7-8">
          <mxGeometry y="26" width="180" height="130" as="geometry" />
        </mxCell>
        <mxCell id="YDaZaCtdbL7-nGB_41k7-39" style="edgeStyle=orthogonalEdgeStyle;rounded=0;orthogonalLoop=1;jettySize=auto;html=1;entryX=1;entryY=0.5;entryDx=0;entryDy=0;" edge="1" parent="1" source="YDaZaCtdbL7-nGB_41k7-18" target="YDaZaCtdbL7-nGB_41k7-36">
          <mxGeometry relative="1" as="geometry" />
        </mxCell>
        <mxCell id="YDaZaCtdbL7-nGB_41k7-18" value="HabitController" style="swimlane;fontStyle=1;align=center;verticalAlign=top;childLayout=stackLayout;horizontal=1;startSize=26;horizontalStack=0;resizeParent=1;resizeParentMax=0;resizeLast=0;collapsible=1;marginBottom=0;whiteSpace=wrap;html=1;" vertex="1" parent="1">
          <mxGeometry x="320" y="300" width="230" height="164" as="geometry" />
        </mxCell>
        <mxCell id="YDaZaCtdbL7-nGB_41k7-19" value="&lt;div&gt;+ _database: DatabaseController&lt;/div&gt;&lt;div&gt;+ _view: View&lt;/div&gt;" style="text;strokeColor=none;fillColor=none;align=left;verticalAlign=top;spacingLeft=4;spacingRight=4;overflow=hidden;rotatable=0;points=[[0,0.5],[1,0.5]];portConstraint=eastwest;whiteSpace=wrap;html=1;" vertex="1" parent="YDaZaCtdbL7-nGB_41k7-18">
          <mxGeometry y="26" width="230" height="40" as="geometry" />
        </mxCell>
        <mxCell id="YDaZaCtdbL7-nGB_41k7-20" value="" style="line;strokeWidth=1;fillColor=none;align=left;verticalAlign=middle;spacingTop=-1;spacingLeft=3;spacingRight=3;rotatable=0;labelPosition=right;points=[];portConstraint=eastwest;strokeColor=inherit;" vertex="1" parent="YDaZaCtdbL7-nGB_41k7-18">
          <mxGeometry y="66" width="230" height="8" as="geometry" />
        </mxCell>
        <mxCell id="YDaZaCtdbL7-nGB_41k7-21" value="&lt;div&gt;+ CreateHabit(Habit): Habit&lt;/div&gt;&lt;div&gt;+ GetHabit(id): Habit&lt;/div&gt;&lt;div&gt;+ UpdateHabit(Habit): Succes/Error&lt;br&gt;&lt;div&gt;+ DeleteHabit(Habit): Succes/Error&lt;/div&gt;&lt;div&gt;+ Create&lt;/div&gt;&lt;/div&gt;" style="text;strokeColor=none;fillColor=none;align=left;verticalAlign=top;spacingLeft=4;spacingRight=4;overflow=hidden;rotatable=0;points=[[0,0.5],[1,0.5]];portConstraint=eastwest;whiteSpace=wrap;html=1;" vertex="1" parent="YDaZaCtdbL7-nGB_41k7-18">
          <mxGeometry y="74" width="230" height="90" as="geometry" />
        </mxCell>
        <mxCell id="YDaZaCtdbL7-nGB_41k7-28" value="Habit" style="swimlane;fontStyle=0;childLayout=stackLayout;horizontal=1;startSize=26;fillColor=none;horizontalStack=0;resizeParent=1;resizeParentMax=0;resizeLast=0;collapsible=1;marginBottom=0;whiteSpace=wrap;html=1;" vertex="1" parent="1">
          <mxGeometry x="640" y="190" width="140" height="134" as="geometry" />
        </mxCell>
        <mxCell id="YDaZaCtdbL7-nGB_41k7-29" value="+ Name: string" style="text;strokeColor=none;fillColor=none;align=left;verticalAlign=top;spacingLeft=4;spacingRight=4;overflow=hidden;rotatable=0;points=[[0,0.5],[1,0.5]];portConstraint=eastwest;whiteSpace=wrap;html=1;" vertex="1" parent="YDaZaCtdbL7-nGB_41k7-28">
          <mxGeometry y="26" width="140" height="26" as="geometry" />
        </mxCell>
        <mxCell id="YDaZaCtdbL7-nGB_41k7-42" value="+ Description: string" style="text;strokeColor=none;fillColor=none;align=left;verticalAlign=top;spacingLeft=4;spacingRight=4;overflow=hidden;rotatable=0;points=[[0,0.5],[1,0.5]];portConstraint=eastwest;whiteSpace=wrap;html=1;" vertex="1" parent="YDaZaCtdbL7-nGB_41k7-28">
          <mxGeometry y="52" width="140" height="26" as="geometry" />
        </mxCell>
        <mxCell id="YDaZaCtdbL7-nGB_41k7-30" value="+ Amount: double" style="text;strokeColor=none;fillColor=none;align=left;verticalAlign=top;spacingLeft=4;spacingRight=4;overflow=hidden;rotatable=0;points=[[0,0.5],[1,0.5]];portConstraint=eastwest;whiteSpace=wrap;html=1;" vertex="1" parent="YDaZaCtdbL7-nGB_41k7-28">
          <mxGeometry y="78" width="140" height="30" as="geometry" />
        </mxCell>
        <mxCell id="YDaZaCtdbL7-nGB_41k7-31" value="+ Unit: string" style="text;strokeColor=none;fillColor=none;align=left;verticalAlign=top;spacingLeft=4;spacingRight=4;overflow=hidden;rotatable=0;points=[[0,0.5],[1,0.5]];portConstraint=eastwest;whiteSpace=wrap;html=1;" vertex="1" parent="YDaZaCtdbL7-nGB_41k7-28">
          <mxGeometry y="108" width="140" height="26" as="geometry" />
        </mxCell>
        <mxCell id="YDaZaCtdbL7-nGB_41k7-32" style="edgeStyle=orthogonalEdgeStyle;rounded=0;orthogonalLoop=1;jettySize=auto;html=1;entryX=1;entryY=0.675;entryDx=0;entryDy=0;entryPerimeter=0;" edge="1" parent="1" source="YDaZaCtdbL7-nGB_41k7-30" target="YDaZaCtdbL7-nGB_41k7-19">
          <mxGeometry relative="1" as="geometry" />
        </mxCell>
        <mxCell id="YDaZaCtdbL7-nGB_41k7-35" value="Program" style="swimlane;fontStyle=1;align=center;verticalAlign=top;childLayout=stackLayout;horizontal=1;startSize=26;horizontalStack=0;resizeParent=1;resizeParentMax=0;resizeLast=0;collapsible=1;marginBottom=0;whiteSpace=wrap;html=1;" vertex="1" parent="1">
          <mxGeometry x="140" y="60" width="200" height="104" as="geometry" />
        </mxCell>
        <mxCell id="YDaZaCtdbL7-nGB_41k7-36" value="+ HabitController: HabitController" style="text;strokeColor=none;fillColor=none;align=left;verticalAlign=top;spacingLeft=4;spacingRight=4;overflow=hidden;rotatable=0;points=[[0,0.5],[1,0.5]];portConstraint=eastwest;whiteSpace=wrap;html=1;" vertex="1" parent="YDaZaCtdbL7-nGB_41k7-35">
          <mxGeometry y="26" width="200" height="30" as="geometry" />
        </mxCell>
        <mxCell id="YDaZaCtdbL7-nGB_41k7-37" value="" style="line;strokeWidth=1;fillColor=none;align=left;verticalAlign=middle;spacingTop=-1;spacingLeft=3;spacingRight=3;rotatable=0;labelPosition=right;points=[];portConstraint=eastwest;strokeColor=inherit;" vertex="1" parent="YDaZaCtdbL7-nGB_41k7-35">
          <mxGeometry y="56" width="200" height="8" as="geometry" />
        </mxCell>
        <mxCell id="YDaZaCtdbL7-nGB_41k7-38" value="+ Reads input&lt;div&gt;+ Calls controller functions&lt;/div&gt;" style="text;strokeColor=none;fillColor=none;align=left;verticalAlign=top;spacingLeft=4;spacingRight=4;overflow=hidden;rotatable=0;points=[[0,0.5],[1,0.5]];portConstraint=eastwest;whiteSpace=wrap;html=1;" vertex="1" parent="YDaZaCtdbL7-nGB_41k7-35">
          <mxGeometry y="64" width="200" height="40" as="geometry" />
        </mxCell>
      </root>
    </mxGraphModel>
  </diagram>
</mxfile>
